# xmcd
#
# Track frame offsets: 
#        150
#        13987
#        29561
#        53767
#        81751
#        106799
#
# Disc length: 3284 seconds
#
# Revision: 0
# Processed by: cddbd v1.5.2PL0 Copyright (c) Steve Scherf et al.
# Submitted via: ExactAudioCopy v0.99pb3
#
DISCID=430cd206
DTITLE=Various Artist - Five New Songs From Twisted Nerve
DYEAR=2002
DGENRE=Twisted Nerve
TTITLE0=Misty Dixon - The Sea Is Not Far
TTITLE1=Cherrystones - Va Moose!
TTITLE2=Little Miss Trinitron - Hotel California
TTITLE3=Mum&Dad - Billion Dollar Teardrop (Sirconical mix)
TTITLE4=Alfie - Not Half
TTITLE5=Minisite
EXTD=
EXTT0=
EXTT1=
EXTT2=
EXTT3=
EXTT4=
EXTT5=
PLAYORDER=
